<mxfile host="app.diagrams.net" modified="2022-07-01T15:09:34.626Z" agent="5.0 (Windows NT 10.0; Win64; x64) AppleWebKit/537.36 (KHTML, like Gecko) Chrome/103.0.0.0 Safari/537.36" etag="x0qaYDm4cQYdChytxh0u" version="20.0.3" type="github">
  <diagram id="SXhiOn-P50FFI9cyF-ks" name="Page-1">
    <mxGraphModel dx="769" dy="680" grid="1" gridSize="10" guides="1" tooltips="1" connect="1" arrows="1" fold="1" page="1" pageScale="1" pageWidth="827" pageHeight="1169" math="0" shadow="0">
      <root>
        <mxCell id="0" />
        <mxCell id="1" parent="0" />
        <mxCell id="OwEsTZ2ZFt-TqxLRLODQ-83" value="" style="edgeStyle=orthogonalEdgeStyle;rounded=0;orthogonalLoop=1;jettySize=auto;html=1;" edge="1" parent="1" source="OwEsTZ2ZFt-TqxLRLODQ-1" target="OwEsTZ2ZFt-TqxLRLODQ-30">
          <mxGeometry relative="1" as="geometry" />
        </mxCell>
        <mxCell id="OwEsTZ2ZFt-TqxLRLODQ-1" value="INICIO" style="ellipse;whiteSpace=wrap;html=1;" vertex="1" parent="1">
          <mxGeometry x="24.389999999999997" y="80" width="120" height="80" as="geometry" />
        </mxCell>
        <mxCell id="OwEsTZ2ZFt-TqxLRLODQ-58" value="" style="edgeStyle=orthogonalEdgeStyle;rounded=0;orthogonalLoop=1;jettySize=auto;html=1;" edge="1" parent="1" source="OwEsTZ2ZFt-TqxLRLODQ-3" target="OwEsTZ2ZFt-TqxLRLODQ-6">
          <mxGeometry relative="1" as="geometry" />
        </mxCell>
        <mxCell id="OwEsTZ2ZFt-TqxLRLODQ-3" value="Digite sua idade" style="shape=display;whiteSpace=wrap;html=1;" vertex="1" parent="1">
          <mxGeometry x="22.499999999999993" y="880" width="125" height="80" as="geometry" />
        </mxCell>
        <mxCell id="OwEsTZ2ZFt-TqxLRLODQ-6" value="Idade informada" style="shape=manualInput;whiteSpace=wrap;html=1;" vertex="1" parent="1">
          <mxGeometry x="30" y="1035" width="110" height="90" as="geometry" />
        </mxCell>
        <mxCell id="OwEsTZ2ZFt-TqxLRLODQ-63" style="edgeStyle=orthogonalEdgeStyle;rounded=0;orthogonalLoop=1;jettySize=auto;html=1;" edge="1" parent="1" source="OwEsTZ2ZFt-TqxLRLODQ-21" target="OwEsTZ2ZFt-TqxLRLODQ-23">
          <mxGeometry relative="1" as="geometry" />
        </mxCell>
        <mxCell id="OwEsTZ2ZFt-TqxLRLODQ-21" value="Cadastro não permitido por idade" style="shape=display;whiteSpace=wrap;html=1;" vertex="1" parent="1">
          <mxGeometry x="187.5" y="900" width="125" height="80" as="geometry" />
        </mxCell>
        <mxCell id="OwEsTZ2ZFt-TqxLRLODQ-23" value="Fim" style="ellipse;whiteSpace=wrap;html=1;" vertex="1" parent="1">
          <mxGeometry x="370" y="540" width="120" height="60" as="geometry" />
        </mxCell>
        <mxCell id="OwEsTZ2ZFt-TqxLRLODQ-61" value="" style="edgeStyle=orthogonalEdgeStyle;rounded=0;orthogonalLoop=1;jettySize=auto;html=1;" edge="1" parent="1" source="OwEsTZ2ZFt-TqxLRLODQ-26" target="OwEsTZ2ZFt-TqxLRLODQ-21">
          <mxGeometry relative="1" as="geometry" />
        </mxCell>
        <mxCell id="OwEsTZ2ZFt-TqxLRLODQ-62" value="" style="edgeStyle=orthogonalEdgeStyle;rounded=0;orthogonalLoop=1;jettySize=auto;html=1;" edge="1" parent="1" source="OwEsTZ2ZFt-TqxLRLODQ-26" target="OwEsTZ2ZFt-TqxLRLODQ-29">
          <mxGeometry relative="1" as="geometry" />
        </mxCell>
        <mxCell id="OwEsTZ2ZFt-TqxLRLODQ-26" value="Idade &amp;gt;= 18?" style="rhombus;whiteSpace=wrap;html=1;" vertex="1" parent="1">
          <mxGeometry x="200" y="1030" width="100" height="100" as="geometry" />
        </mxCell>
        <mxCell id="OwEsTZ2ZFt-TqxLRLODQ-27" value="Não" style="text;html=1;strokeColor=none;fillColor=none;align=center;verticalAlign=middle;whiteSpace=wrap;rounded=0;" vertex="1" parent="1">
          <mxGeometry x="240" y="990" width="60" height="30" as="geometry" />
        </mxCell>
        <mxCell id="OwEsTZ2ZFt-TqxLRLODQ-28" value="Sim" style="text;html=1;strokeColor=none;fillColor=none;align=center;verticalAlign=middle;whiteSpace=wrap;rounded=0;" vertex="1" parent="1">
          <mxGeometry x="290" y="1050" width="60" height="30" as="geometry" />
        </mxCell>
        <mxCell id="OwEsTZ2ZFt-TqxLRLODQ-65" value="" style="edgeStyle=orthogonalEdgeStyle;rounded=0;orthogonalLoop=1;jettySize=auto;html=1;" edge="1" parent="1" source="OwEsTZ2ZFt-TqxLRLODQ-29" target="OwEsTZ2ZFt-TqxLRLODQ-64">
          <mxGeometry relative="1" as="geometry" />
        </mxCell>
        <mxCell id="OwEsTZ2ZFt-TqxLRLODQ-29" value="Cadastro permitido" style="shape=display;whiteSpace=wrap;html=1;" vertex="1" parent="1">
          <mxGeometry x="340" y="1040" width="125" height="80" as="geometry" />
        </mxCell>
        <mxCell id="OwEsTZ2ZFt-TqxLRLODQ-48" value="" style="edgeStyle=orthogonalEdgeStyle;rounded=0;orthogonalLoop=1;jettySize=auto;html=1;" edge="1" parent="1" source="OwEsTZ2ZFt-TqxLRLODQ-30" target="OwEsTZ2ZFt-TqxLRLODQ-36">
          <mxGeometry relative="1" as="geometry" />
        </mxCell>
        <mxCell id="OwEsTZ2ZFt-TqxLRLODQ-30" value="Insira a data do evento" style="shape=display;whiteSpace=wrap;html=1;" vertex="1" parent="1">
          <mxGeometry x="16.879999999999995" y="220" width="136.25" height="80" as="geometry" />
        </mxCell>
        <mxCell id="OwEsTZ2ZFt-TqxLRLODQ-82" value="" style="edgeStyle=orthogonalEdgeStyle;rounded=0;orthogonalLoop=1;jettySize=auto;html=1;" edge="1" parent="1" source="OwEsTZ2ZFt-TqxLRLODQ-36" target="OwEsTZ2ZFt-TqxLRLODQ-41">
          <mxGeometry relative="1" as="geometry" />
        </mxCell>
        <mxCell id="OwEsTZ2ZFt-TqxLRLODQ-36" value="Data do evento" style="shape=manualInput;whiteSpace=wrap;html=1;" vertex="1" parent="1">
          <mxGeometry x="24.39" y="360" width="120" height="100" as="geometry" />
        </mxCell>
        <mxCell id="OwEsTZ2ZFt-TqxLRLODQ-50" value="" style="edgeStyle=orthogonalEdgeStyle;rounded=0;orthogonalLoop=1;jettySize=auto;html=1;" edge="1" parent="1" target="OwEsTZ2ZFt-TqxLRLODQ-41">
          <mxGeometry relative="1" as="geometry">
            <mxPoint x="90.05882352941182" y="480" as="sourcePoint" />
          </mxGeometry>
        </mxCell>
        <mxCell id="OwEsTZ2ZFt-TqxLRLODQ-51" value="" style="edgeStyle=orthogonalEdgeStyle;rounded=0;orthogonalLoop=1;jettySize=auto;html=1;" edge="1" parent="1" source="OwEsTZ2ZFt-TqxLRLODQ-41" target="OwEsTZ2ZFt-TqxLRLODQ-43">
          <mxGeometry relative="1" as="geometry" />
        </mxCell>
        <mxCell id="OwEsTZ2ZFt-TqxLRLODQ-56" value="" style="edgeStyle=orthogonalEdgeStyle;rounded=0;orthogonalLoop=1;jettySize=auto;html=1;" edge="1" parent="1" source="OwEsTZ2ZFt-TqxLRLODQ-41" target="OwEsTZ2ZFt-TqxLRLODQ-53">
          <mxGeometry relative="1" as="geometry" />
        </mxCell>
        <mxCell id="OwEsTZ2ZFt-TqxLRLODQ-41" value="Data do evento &amp;gt; data atual" style="rhombus;whiteSpace=wrap;html=1;" vertex="1" parent="1">
          <mxGeometry x="24.389999999999993" y="520" width="120" height="110" as="geometry" />
        </mxCell>
        <mxCell id="OwEsTZ2ZFt-TqxLRLODQ-52" value="" style="edgeStyle=orthogonalEdgeStyle;rounded=0;orthogonalLoop=1;jettySize=auto;html=1;" edge="1" parent="1" source="OwEsTZ2ZFt-TqxLRLODQ-43" target="OwEsTZ2ZFt-TqxLRLODQ-23">
          <mxGeometry relative="1" as="geometry" />
        </mxCell>
        <mxCell id="OwEsTZ2ZFt-TqxLRLODQ-43" value="Cadastro não permitido por data inválida" style="shape=display;whiteSpace=wrap;html=1;" vertex="1" parent="1">
          <mxGeometry x="210" y="530" width="125" height="80" as="geometry" />
        </mxCell>
        <mxCell id="OwEsTZ2ZFt-TqxLRLODQ-57" value="" style="edgeStyle=orthogonalEdgeStyle;rounded=0;orthogonalLoop=1;jettySize=auto;html=1;" edge="1" parent="1" source="OwEsTZ2ZFt-TqxLRLODQ-53" target="OwEsTZ2ZFt-TqxLRLODQ-3">
          <mxGeometry relative="1" as="geometry" />
        </mxCell>
        <mxCell id="OwEsTZ2ZFt-TqxLRLODQ-53" value="Cadastro do evento permitido" style="shape=display;whiteSpace=wrap;html=1;" vertex="1" parent="1">
          <mxGeometry x="21.89" y="730" width="125" height="80" as="geometry" />
        </mxCell>
        <mxCell id="OwEsTZ2ZFt-TqxLRLODQ-54" value="Não" style="text;html=1;strokeColor=none;fillColor=none;align=center;verticalAlign=middle;whiteSpace=wrap;rounded=0;" vertex="1" parent="1">
          <mxGeometry x="150" y="540" width="60" height="30" as="geometry" />
        </mxCell>
        <mxCell id="OwEsTZ2ZFt-TqxLRLODQ-55" value="Sim" style="text;html=1;strokeColor=none;fillColor=none;align=center;verticalAlign=middle;whiteSpace=wrap;rounded=0;" vertex="1" parent="1">
          <mxGeometry x="80" y="630" width="60" height="30" as="geometry" />
        </mxCell>
        <mxCell id="OwEsTZ2ZFt-TqxLRLODQ-67" value="" style="edgeStyle=orthogonalEdgeStyle;rounded=0;orthogonalLoop=1;jettySize=auto;html=1;" edge="1" parent="1" source="OwEsTZ2ZFt-TqxLRLODQ-64" target="OwEsTZ2ZFt-TqxLRLODQ-66">
          <mxGeometry relative="1" as="geometry" />
        </mxCell>
        <mxCell id="OwEsTZ2ZFt-TqxLRLODQ-64" value="Insira os nomes dos participantes" style="shape=display;whiteSpace=wrap;html=1;" vertex="1" parent="1">
          <mxGeometry x="500" y="1040" width="125" height="80" as="geometry" />
        </mxCell>
        <mxCell id="OwEsTZ2ZFt-TqxLRLODQ-84" value="" style="edgeStyle=orthogonalEdgeStyle;rounded=0;orthogonalLoop=1;jettySize=auto;html=1;" edge="1" parent="1" source="OwEsTZ2ZFt-TqxLRLODQ-66" target="OwEsTZ2ZFt-TqxLRLODQ-69">
          <mxGeometry relative="1" as="geometry" />
        </mxCell>
        <mxCell id="OwEsTZ2ZFt-TqxLRLODQ-66" value="Lista de participantes" style="shape=manualInput;whiteSpace=wrap;html=1;" vertex="1" parent="1">
          <mxGeometry x="660" y="1035" width="110" height="90" as="geometry" />
        </mxCell>
        <mxCell id="OwEsTZ2ZFt-TqxLRLODQ-72" value="" style="edgeStyle=orthogonalEdgeStyle;rounded=0;orthogonalLoop=1;jettySize=auto;html=1;" edge="1" parent="1" source="OwEsTZ2ZFt-TqxLRLODQ-69" target="OwEsTZ2ZFt-TqxLRLODQ-71">
          <mxGeometry relative="1" as="geometry" />
        </mxCell>
        <mxCell id="OwEsTZ2ZFt-TqxLRLODQ-86" value="" style="edgeStyle=orthogonalEdgeStyle;rounded=0;orthogonalLoop=1;jettySize=auto;html=1;" edge="1" parent="1" source="OwEsTZ2ZFt-TqxLRLODQ-69" target="OwEsTZ2ZFt-TqxLRLODQ-85">
          <mxGeometry relative="1" as="geometry" />
        </mxCell>
        <mxCell id="OwEsTZ2ZFt-TqxLRLODQ-69" value="Número de participantes &amp;lt;= 100?" style="rhombus;whiteSpace=wrap;html=1;" vertex="1" parent="1">
          <mxGeometry x="657.5" y="830" width="115" height="130" as="geometry" />
        </mxCell>
        <mxCell id="OwEsTZ2ZFt-TqxLRLODQ-81" style="edgeStyle=orthogonalEdgeStyle;rounded=0;orthogonalLoop=1;jettySize=auto;html=1;entryX=0.695;entryY=0.961;entryDx=0;entryDy=0;entryPerimeter=0;" edge="1" parent="1" source="OwEsTZ2ZFt-TqxLRLODQ-71" target="OwEsTZ2ZFt-TqxLRLODQ-23">
          <mxGeometry relative="1" as="geometry" />
        </mxCell>
        <mxCell id="OwEsTZ2ZFt-TqxLRLODQ-71" value="Cadastro não permitido por exceder limite" style="shape=display;whiteSpace=wrap;html=1;" vertex="1" parent="1">
          <mxGeometry x="480" y="855" width="125" height="80" as="geometry" />
        </mxCell>
        <mxCell id="OwEsTZ2ZFt-TqxLRLODQ-73" value="Não" style="text;html=1;strokeColor=none;fillColor=none;align=center;verticalAlign=middle;whiteSpace=wrap;rounded=0;" vertex="1" parent="1">
          <mxGeometry x="605" y="855" width="60" height="30" as="geometry" />
        </mxCell>
        <mxCell id="OwEsTZ2ZFt-TqxLRLODQ-77" style="edgeStyle=orthogonalEdgeStyle;rounded=0;orthogonalLoop=1;jettySize=auto;html=1;exitX=1;exitY=0.5;exitDx=0;exitDy=0;" edge="1" parent="1" source="OwEsTZ2ZFt-TqxLRLODQ-6">
          <mxGeometry relative="1" as="geometry">
            <mxPoint x="200" y="1080" as="targetPoint" />
            <mxPoint x="153.76" y="1080" as="sourcePoint" />
          </mxGeometry>
        </mxCell>
        <mxCell id="OwEsTZ2ZFt-TqxLRLODQ-87" style="edgeStyle=orthogonalEdgeStyle;rounded=0;orthogonalLoop=1;jettySize=auto;html=1;entryX=1;entryY=0.5;entryDx=0;entryDy=0;" edge="1" parent="1" source="OwEsTZ2ZFt-TqxLRLODQ-85" target="OwEsTZ2ZFt-TqxLRLODQ-23">
          <mxGeometry relative="1" as="geometry">
            <Array as="points">
              <mxPoint x="720" y="570" />
            </Array>
          </mxGeometry>
        </mxCell>
        <mxCell id="OwEsTZ2ZFt-TqxLRLODQ-85" value="Cadastro do evento permitido" style="shape=display;whiteSpace=wrap;html=1;" vertex="1" parent="1">
          <mxGeometry x="652.5" y="670" width="125" height="80" as="geometry" />
        </mxCell>
        <mxCell id="OwEsTZ2ZFt-TqxLRLODQ-88" value="Sim" style="text;html=1;strokeColor=none;fillColor=none;align=center;verticalAlign=middle;whiteSpace=wrap;rounded=0;" vertex="1" parent="1">
          <mxGeometry x="717.5" y="780" width="60" height="30" as="geometry" />
        </mxCell>
      </root>
    </mxGraphModel>
  </diagram>
</mxfile>
